<svg viewBox="0 0 15 15">
<g>
	<g>
		<path d="M7.5,15.001c-4.136,0-7.5-3.364-7.5-7.5s3.364-7.5,7.5-7.5c4.135,0,7.5,3.364,7.5,7.5
			S11.636,15.001,7.5,15.001z M7.5,1.251c-3.459,0-6.273,2.804-6.273,6.25s2.814,6.25,6.273,6.25c3.458,0,6.272-2.804,6.272-6.25
			S10.959,1.251,7.5,1.251z"/>
	</g>
	<g>
		<path d="M7.5,15.001c-4.136,0-7.5-3.364-7.5-7.5s3.364-7.5,7.5-7.5c4.135,0,7.5,3.364,7.5,7.5
			S11.636,15.001,7.5,15.001z M7.5,1.251c-3.459,0-6.273,2.804-6.273,6.25s2.814,6.25,6.273,6.25c3.458,0,6.272-2.804,6.272-6.25
			S10.959,1.251,7.5,1.251z"/>
	</g>
	<g>
		<g>
			<path d="M7.499,15.001c-0.085,0-0.172-0.019-0.255-0.057c-0.161-0.075-3.933-1.903-3.933-7.443
				s3.773-7.368,3.933-7.443c0.308-0.147,0.672-0.006,0.814,0.307C8.199,0.679,8.064,1.05,7.756,1.194
				C7.627,1.256,4.538,2.791,4.538,7.501c0,4.71,3.089,6.245,3.221,6.309c0.306,0.146,0.439,0.518,0.297,0.829
				C7.951,14.867,7.73,15.001,7.499,15.001z"/>
		</g>
		<g>
			<path d="M7.501,15.001c-0.233,0-0.455-0.135-0.558-0.364c-0.141-0.313-0.007-0.685,0.302-0.829
				c0.129-0.062,3.218-1.597,3.218-6.307c0-4.71-3.089-6.245-3.22-6.308c-0.306-0.146-0.439-0.518-0.297-0.83
				c0.142-0.312,0.504-0.449,0.811-0.305c0.161,0.075,3.933,1.903,3.933,7.443s-3.772,7.368-3.933,7.443
				C7.673,14.983,7.586,15.001,7.501,15.001z"/>
		</g>
	</g>
	<g>
		<rect x="1.013" y="4.573" width="12.975" height="1.25"/>
	</g>
	<g>
		<rect x="1.013" y="9.145" width="12.975" height="1.25"/>
	</g>
	<g>
		<path class="stroke" fill="none" stroke-width="1.25" stroke-miterlimit="10" d="M7.5,0.626"/>
	</g>
	<g>
		<rect x="6.887" y="0.626" width="1.227" height="13.716"/>
	</g>
</g>
</svg>
