<svg viewBox="0 0 11 18">
<g>
	<g>
		<path d="M8.611,18H2.389C1.072,18,0,16.947,0,15.652V2.347C0,1.053,1.072,0,2.389,0h6.222
			C9.929,0,11,1.053,11,2.347v13.305C11,16.947,9.929,18,8.611,18z M2.389,1.25c-0.616,0-1.117,0.492-1.117,1.097v13.305
			c0,0.605,0.501,1.098,1.117,1.098h6.222c0.616,0,1.117-0.492,1.117-1.098V2.347c0-0.605-0.501-1.097-1.117-1.097H2.389z"/>
	</g>
	<g>
		<rect x="0.636" y="12.458" width="9.726" height="1.25"/>
	</g>
	<g>
		<rect x="0.636" y="4.292" width="9.726" height="1.25"/>
	</g>
	<g>
		<ellipse cx="5.499" cy="15.229" rx="0.563" ry="0.554"/>
	</g>
	<g>
		<g>
			<ellipse cx="3.873" cy="2.771" rx="0.563" ry="0.554"/>
		</g>
		<g>
			<path d="M5.999,3.325c-0.311,0-0.563-0.248-0.563-0.554s0.252-0.554,0.563-0.554h1.126
				c0.311,0,0.563,0.248,0.563,0.554S7.436,3.325,7.125,3.325H5.999z"/>
		</g>
	</g>
</g>
</svg>
