<svg viewBox="0 0 20 15">
<g>
	<g>
		<path d="M15.568,15H4.431V7.058L3.193,7.919L0,3.384L4.862,0h3.034l0.15,0.414C8.344,1.237,9.129,1.79,10,1.79
			c0.871,0,1.657-0.553,1.955-1.376L12.104,0h3.033L20,3.384l-3.195,4.535l-1.237-0.862V15z M5.69,13.75h8.619V4.654l2.187,1.522
			l1.75-2.486L14.74,1.25h-1.783C12.386,2.336,11.248,3.04,10,3.04c-1.248,0-2.386-0.704-2.957-1.79H5.259L1.752,3.691l1.751,2.486
			L5.69,4.654V13.75z"/>
	</g>
	<g>
		<path d="M5.06,8.564c-0.348,0-0.63-0.28-0.63-0.625V4.385c0-0.345,0.282-0.625,0.63-0.625s0.63,0.28,0.63,0.625
			v3.554C5.69,8.284,5.408,8.564,5.06,8.564z"/>
	</g>
	<g>
		<path d="M14.931,8.564c-0.347,0-0.63-0.28-0.63-0.625V4.385c0-0.345,0.282-0.625,0.63-0.625
			c0.347,0,0.63,0.28,0.63,0.625v3.554C15.561,8.284,15.278,8.564,14.931,8.564z"/>
	</g>
</g>
</svg>
