<svg class="svgicon twitter" viewBox="0 0 18 15">
  <title>Twitter</title>
  <path d="M18,1.776c-0.662,0.301-1.374,0.505-2.121,0.596c0.762-0.469,1.348-1.211,1.624-2.095c-0.714,0.434-1.504,0.749-2.345,0.919
  	C14.484,0.46,13.524,0,12.462,0c-2.04,0-3.693,1.695-3.693,3.787c0,0.297,0.033,0.586,0.096,0.863
  	c-3.069-0.158-5.79-1.665-7.612-3.957c-0.318,0.559-0.5,1.21-0.5,1.904c0,1.314,0.652,2.473,1.643,3.152
  	c-0.605-0.02-1.175-0.19-1.673-0.474c0,0.016,0,0.032,0,0.048c0,1.835,1.273,3.365,2.962,3.713c-0.31,0.087-0.636,0.133-0.973,0.133
  	c-0.238,0-0.469-0.024-0.695-0.068c0.47,1.504,1.834,2.599,3.45,2.63c-1.264,1.016-2.856,1.621-4.586,1.621
  	c-0.298,0-0.592-0.018-0.881-0.053C1.634,14.373,3.575,15,5.661,15c6.793,0,10.507-5.77,10.507-10.774
  	c0-0.164-0.004-0.327-0.011-0.49C16.879,3.202,17.505,2.535,18,1.776z"/>
</svg>
