<svg viewBox="0 0 40 40">
  <path class="st0" d="M33.7,1H6.3C3.4,1,1,3.4,1,6.3v27.4C1,36.6,3.4,39,6.3,39h27.4c2.9,0,5.3-2.4,5.3-5.3V6.3
    C39,3.4,36.6,1,33.7,1z M20,12.6c4.1,0,7.4,3.3,7.4,7.4s-3.3,7.4-7.4,7.4s-7.4-3.3-7.4-7.4S15.9,12.6,20,12.6z M34.8,33.7
    c0,0.6-0.5,1.1-1.1,1.1H6.3c-0.6,0-1.1-0.5-1.1-1.1V16.8h3.7c-0.3,1-0.5,2.1-0.5,3.2c0,6.4,5.2,11.6,11.6,11.6S31.6,26.4,31.6,20
    c0-1.1-0.2-2.2-0.5-3.2h3.7V33.7z M34.8,11.6c0,0.6-0.5,1.1-1.1,1.1h-5.3c-0.6,0-1.1-0.5-1.1-1.1V6.3c0-0.6,0.5-1.1,1.1-1.1h5.3
    c0.6,0,1.1,0.5,1.1,1.1V11.6z"/>
</svg>
