<svg viewBox="0 0 40 40">
<path d="M1,1v38h38V1H1z M32.6,10l-2,2c-0.2,0.1-0.3,0.4-0.2,0.6v14.4c0,0.2,0.1,0.4,0.2,0.6l2,2v0.4h-10v-0.4l2.1-2
	c0.2-0.2,0.2-0.3,0.2-0.6V15.2L19,29.8h-0.8l-6.7-14.6V25c-0.1,0.4,0.1,0.8,0.4,1.1l2.7,3.3v0.4H7v-0.4l2.7-3.3
	c0.3-0.3,0.4-0.7,0.3-1.1V13.7c0-0.3-0.1-0.6-0.3-0.8L7.4,10V9.6h7.4l5.7,12.5l5-12.5h7.1V10z"/>
<path d="M1,1v38h38V1H1z M32.6,10l-2,2c-0.2,0.1-0.3,0.4-0.2,0.6v14.4c0,0.2,0.1,0.4,0.2,0.6l2,2v0.4h-10v-0.4l2.1-2
	c0.2-0.2,0.2-0.3,0.2-0.6V15.2L19,29.8h-0.8l-6.7-14.6V25c-0.1,0.4,0.1,0.8,0.4,1.1l2.7,3.3v0.4H7v-0.4l2.7-3.3
	c0.3-0.3,0.4-0.7,0.3-1.1V13.7c0-0.3-0.1-0.6-0.3-0.8L7.4,10V9.6h7.4l5.7,12.5l5-12.5h7.1V10z"/>
</svg>
