<svg viewBox="0 0 40 40">
  <path class="st0" d="M20,1C9.5,1,1,9.5,1,20c0,8,5,14.9,12.1,17.7c-0.2-1.5-0.3-3.8,0.1-5.5c0.3-1.5,2.2-9.4,2.2-9.4
    s-0.6-1.1-0.6-2.8c0-2.6,1.5-4.6,3.4-4.6c1.6,0,2.4,1.2,2.4,2.7c0,1.6-1,4.1-1.6,6.3c-0.4,1.9,0.9,3.4,2.8,3.4c3.4,0,6-3.6,6-8.7
    c0-4.5-3.3-7.7-7.9-7.7c-5.4,0-8.6,4.1-8.6,8.2c0,1.6,0.6,3.4,1.4,4.3c0.2,0.2,0.2,0.4,0.1,0.5c-0.1,0.6-0.5,1.9-0.5,2.2
    c-0.1,0.3-0.3,0.4-0.6,0.3c-2.4-1.1-3.9-4.6-3.9-7.4c0-6,4.4-11.5,12.6-11.5c6.6,0,11.7,4.7,11.7,11c0,6.5-4.1,11.8-9.9,11.8
    c-1.9,0-3.7-1-4.4-2.2c0,0-1,3.6-1.2,4.5c-0.4,1.7-1.6,3.7-2.4,5C16.2,38.7,18,39,20,39c10.5,0,19-8.5,19-19C39,9.5,30.5,1,20,1z"
    />
</svg>
